<svg width="200" height="200" viewBox="0 0 200 200" fill="none" xmlns="http://www.w3.org/2000/svg">
<path d="M125.974 142.267H66.5177L68.0089 132.573C87.6232 133.339 108.42 124.922 125.974 113.073V142.267ZM150.571 88.6265C149.611 87.7392 148.114 87.8005 147.227 88.7601C127.862 109.733 95.2991 129.91 66.1743 127.728L63.9906 127.563L61 147H130.707V109.739C138.223 104.22 145.019 98.1286 150.704 91.9704C151.591 91.0104 151.532 89.5127 150.571 88.6265Z" fill="white"/>
<path d="M75.4086 84.3548L125.825 53.0617V83.0495C113.765 91.7144 102.661 96.4396 94.2578 99.015C84.2082 102.095 76.3932 102.652 72.585 102.707L75.4086 84.3548ZM72.0237 107.453C75.9282 107.453 84.335 106.973 95.3825 103.62C109.243 99.4138 130.095 89.6594 150.714 67.0753C151.594 66.11 151.527 64.6129 150.561 63.7314C149.596 62.8504 148.098 62.9179 147.218 63.884C141.623 70.0117 136.019 75.157 130.558 79.4783V44.5526L71.061 81.4824L67.1082 107.161L69.6333 107.377C69.7483 107.387 70.5769 107.453 72.0237 107.453Z" fill="white"/>
<path d="M150.772 78.8682L150.755 78.8535C151.103 78.4433 151.32 77.9194 151.32 77.3395C151.32 76.0394 150.266 74.9852 148.966 74.9852C148.245 74.9852 147.607 75.3161 147.176 75.8264L147.159 75.8123C129.722 96.4279 93.6213 117.334 65.7327 115.14L65.3629 119.858C66.8052 119.971 68.2638 120.026 69.7436 120.026C98.4167 120.026 133.475 99.3202 150.772 78.8682Z" fill="white"/>
<path d="M158.112 27.512L159.578 32.4898C159.72 32.971 160.301 33.1596 160.698 32.8538L164.811 29.6886C165.375 29.2543 166.157 29.8227 165.918 30.4933L164.179 35.3826C164.011 35.855 164.37 36.3492 164.871 36.3352L170.058 36.1917C170.77 36.1719 171.069 37.0918 170.482 37.4939L166.201 40.4269C165.787 40.7103 165.787 41.321 166.201 41.6045L170.482 44.5374C171.069 44.9397 170.77 45.8594 170.058 45.8397L164.871 45.6961C164.37 45.6823 164.011 46.1762 164.179 46.6489L165.918 51.538C166.157 52.2085 165.375 52.777 164.811 52.3428L160.698 49.1777C160.301 48.8717 159.72 49.0604 159.578 49.5415L158.112 54.5194C157.911 55.2021 156.944 55.2021 156.743 54.5194L155.276 49.5415C155.134 49.0604 154.554 48.8717 154.156 49.1777L150.044 52.3428C149.48 52.777 148.698 52.2085 148.936 51.538L150.676 46.6489C150.844 46.1762 150.485 45.6823 149.983 45.6961L144.796 45.8397C144.085 45.8594 143.786 44.9397 144.373 44.5374L148.654 41.6045C149.068 41.321 149.068 40.7103 148.654 40.4269L144.373 37.4939C143.786 37.0918 144.085 36.1719 144.796 36.1917L149.983 36.3352C150.485 36.3492 150.844 35.855 150.676 35.3826L148.936 30.4933C148.698 29.8227 149.48 29.2543 150.044 29.6886L154.156 32.8538C154.554 33.1596 155.134 32.971 155.276 32.4898L156.743 27.512C156.944 26.8293 157.911 26.8293 158.112 27.512Z" fill="white"/>
</svg>
