<svg width="200" height="200" viewBox="0 0 200 200" fill="none" xmlns="http://www.w3.org/2000/svg">
<path d="M37.8974 87.1555C42.8113 87.1555 46.7948 83.172 46.7948 78.2581C46.7948 73.3442 42.8113 69.3607 37.8974 69.3607C32.9835 69.3607 29 73.3442 29 78.2581C29 83.172 32.9835 87.1555 37.8974 87.1555Z" fill="white"/>
<path d="M162.493 87.1555C167.407 87.1555 171.39 83.172 171.39 78.2581C171.39 73.3442 167.407 69.3607 162.493 69.3607C157.579 69.3607 153.595 73.3442 153.595 78.2581C153.595 83.172 157.579 87.1555 162.493 87.1555Z" fill="white"/>
<path d="M109.1 129.857C114.014 129.857 117.997 125.873 117.997 120.96C117.997 116.046 114.014 112.062 109.1 112.062C104.186 112.062 100.203 116.046 100.203 120.96C100.203 125.873 104.186 129.857 109.1 129.857Z" fill="white"/>
<path d="M162.515 129.857C167.429 129.857 171.412 125.873 171.412 120.96C171.412 116.046 167.429 112.062 162.515 112.062C157.601 112.062 153.618 116.046 153.618 120.96C153.618 125.873 157.601 129.857 162.515 129.857Z" fill="white"/>
<path d="M37.8974 151.206C42.8113 151.206 46.7948 147.223 46.7948 142.309C46.7948 137.395 42.8113 133.411 37.8974 133.411C32.9835 133.411 29 137.395 29 142.309C29 147.223 32.9835 151.206 37.8974 151.206Z" fill="white"/>
<path d="M73.487 151.206C78.4009 151.206 82.3844 147.223 82.3844 142.309C82.3844 137.395 78.4009 133.411 73.487 133.411C68.5731 133.411 64.5896 137.395 64.5896 142.309C64.5896 147.223 68.5731 151.206 73.487 151.206Z" fill="white"/>
<path d="M91.2815 151.206C96.1954 151.206 100.179 147.223 100.179 142.309C100.179 137.395 96.1954 133.411 91.2815 133.411C86.3676 133.411 82.3841 137.395 82.3841 142.309C82.3841 147.223 86.3676 151.206 91.2815 151.206Z" fill="white"/>
<path d="M91.3089 87.1555C96.2228 87.1555 100.206 83.172 100.206 78.2581C100.206 73.3442 96.2228 69.3607 91.3089 69.3607C86.3951 69.3607 82.4116 73.3442 82.4116 78.2581C82.4116 83.172 86.3951 87.1555 91.3089 87.1555Z" fill="white"/>
<path d="M73.5234 108.5C78.4373 108.5 82.4208 104.516 82.4208 99.6023C82.4208 94.6884 78.4373 90.705 73.5234 90.705C68.6095 90.705 64.626 94.6884 64.626 99.6023C64.626 104.516 68.6095 108.5 73.5234 108.5Z" fill="white"/>
<path d="M55.6922 65.7948C60.6061 65.7948 64.5896 61.8113 64.5896 56.8974C64.5896 51.9835 60.6061 48 55.6922 48C50.7784 48 46.7949 51.9835 46.7949 56.8974C46.7949 61.8113 50.7784 65.7948 55.6922 65.7948Z" fill="white"/>
<path fill-rule="evenodd" clip-rule="evenodd" d="M126.91 65.7866V65.789C126.859 65.7879 126.807 65.7866 126.755 65.7866C121.755 65.7866 117.695 69.8474 117.695 74.8477C117.695 76.0507 118.005 77.1706 118.005 78.2513H118.013C111.125 79.0046 106.578 75.5797 109.278 69.3551V69.3456C114.28 69.3456 118.339 65.286 118.339 60.2857C118.339 59.7696 118.295 59.2631 118.212 58.7708C122.354 57.0387 126.156 59.6392 126.91 65.7866Z" fill="white"/>
<path fill-rule="evenodd" clip-rule="evenodd" d="M126.91 133.42V133.417C126.859 133.418 126.807 133.42 126.755 133.42C121.755 133.42 117.695 129.359 117.695 124.359C117.695 123.156 118.005 122.036 118.005 120.955H118.013C111.125 120.202 106.578 123.627 109.278 129.851V129.861C114.28 129.861 118.339 133.92 118.339 138.921C118.339 139.437 118.295 139.943 118.212 140.436C122.354 142.168 126.156 139.567 126.91 133.42Z" fill="white"/>
<path fill-rule="evenodd" clip-rule="evenodd" d="M144.688 65.7865V65.7889C144.739 65.7877 144.791 65.7865 144.844 65.7865C149.844 65.7865 153.904 69.8473 153.904 74.8476C153.904 76.0505 153.594 77.1705 153.594 78.2512H153.586C160.473 79.0045 165.021 75.5796 162.32 69.355V69.3455C157.319 69.3455 153.259 65.2859 153.259 60.2855C153.259 59.7695 153.303 59.263 153.386 58.7706C149.245 57.0386 145.443 59.639 144.688 65.7865Z" fill="white"/>
<path fill-rule="evenodd" clip-rule="evenodd" d="M73.4072 65.8025V65.8049C73.4588 65.8037 73.5116 65.8025 73.5644 65.8025C78.6222 65.8025 82.7285 69.9099 82.7285 74.9678C82.7285 76.1845 82.4153 77.3173 82.4153 78.4105H82.4069C89.3739 79.1724 93.9733 75.7081 91.2422 69.4119V69.4023C86.1832 69.4023 82.0769 65.296 82.0769 60.2382C82.0769 59.7162 82.1213 59.2039 82.2053 58.7059C78.0162 56.9539 74.1704 59.5843 73.4072 65.8025Z" fill="white"/>
<path fill-rule="evenodd" clip-rule="evenodd" d="M55.8075 65.8025V65.8049C55.7559 65.8037 55.7031 65.8025 55.6503 65.8025C50.5925 65.8025 46.4862 69.9099 46.4862 74.9678C46.4862 76.1845 46.7994 77.3173 46.7994 78.4105H46.8078C39.8408 79.1724 35.2414 75.7081 37.9725 69.4119V69.4023C43.0316 69.4023 47.1378 65.296 47.1378 60.2382C47.1378 59.7162 47.0934 59.2039 47.0094 58.7059C51.1985 56.9539 55.0443 59.5843 55.8075 65.8025Z" fill="white"/>
<path fill-rule="evenodd" clip-rule="evenodd" d="M144.715 133.42V133.425C144.766 133.426 144.818 133.42 144.87 133.42C149.869 133.42 153.928 129.36 153.928 124.361C153.928 123.158 153.619 122.038 153.619 120.958H153.61C160.497 120.205 165.043 123.629 162.343 129.852V129.862C157.343 129.862 153.284 133.921 153.284 138.92C153.284 139.436 153.328 139.943 153.411 140.435C149.27 142.166 145.469 139.567 144.715 133.42Z" fill="white"/>
<path fill-rule="evenodd" clip-rule="evenodd" d="M55.7076 129.848V129.85C55.6566 129.849 55.6044 129.848 55.5522 129.848C50.5519 129.848 46.4923 133.909 46.4923 138.909C46.4923 140.112 46.8019 141.232 46.8019 142.312H46.8102C39.9225 143.066 35.3753 139.641 38.0754 133.416V133.407C43.0769 133.407 47.1365 129.347 47.1365 124.347C47.1365 123.831 47.0926 123.324 47.0096 122.832C51.151 121.1 54.9531 123.7 55.7076 129.848Z" fill="white"/>
<path d="M126.871 65.7948C131.785 65.7948 135.768 61.8113 135.768 56.8974C135.768 51.9835 131.785 48 126.871 48C121.957 48 117.974 51.9835 117.974 56.8974C117.974 61.8113 121.957 65.7948 126.871 65.7948Z" fill="white"/>
<path d="M135.769 108.508C140.683 108.508 144.666 104.525 144.666 99.6108C144.666 94.6969 140.683 90.7134 135.769 90.7134C130.855 90.7134 126.871 94.6969 126.871 99.6108C126.871 104.525 130.855 108.508 135.769 108.508Z" fill="white"/>
<path d="M109.104 87.1555C114.018 87.1555 118.001 83.172 118.001 78.2581C118.001 73.3442 114.018 69.3607 109.104 69.3607C104.19 69.3607 100.207 73.3442 100.207 78.2581C100.207 83.172 104.19 87.1555 109.104 87.1555Z" fill="white"/>
<path d="M118 120.968V78.2693H100.205V120.968H118Z" fill="white"/>
<path d="M171.389 120.968V78.2693H153.594V120.968H171.389Z" fill="white"/>
<path d="M126.903 151.221C131.817 151.221 135.8 147.237 135.8 142.323C135.8 137.409 131.817 133.426 126.903 133.426C121.989 133.426 118.006 137.409 118.006 142.323C118.006 147.237 121.989 151.221 126.903 151.221Z" fill="white"/>
<path d="M55.7074 129.851C60.6213 129.851 64.6048 125.868 64.6048 120.954C64.6048 116.04 60.6213 112.056 55.7074 112.056C50.7936 112.056 46.8101 116.04 46.8101 120.954C46.8101 125.868 50.7936 129.851 55.7074 129.851Z" fill="white"/>
<path d="M73.487 65.7948C78.4009 65.7948 82.3844 61.8113 82.3844 56.8974C82.3844 51.9835 78.4009 48 73.487 48C68.5731 48 64.5896 51.9835 64.5896 56.8974C64.5896 61.8113 68.5731 65.7948 73.487 65.7948Z" fill="white"/>
<path d="M144.666 65.7948C149.58 65.7948 153.563 61.8113 153.563 56.8974C153.563 51.9835 149.58 48 144.666 48C139.752 48 135.768 51.9835 135.768 56.8974C135.768 61.8113 139.752 65.7948 144.666 65.7948Z" fill="white"/>
<path d="M144.698 151.221C149.612 151.221 153.595 147.237 153.595 142.323C153.595 137.409 149.612 133.426 144.698 133.426C139.784 133.426 135.801 137.409 135.801 142.323C135.801 147.237 139.784 151.221 144.698 151.221Z" fill="white"/>
</svg>
