<svg width="200" height="200" viewBox="0 0 200 200" fill="none" xmlns="http://www.w3.org/2000/svg">
<path d="M152.934 99.6034C152.934 105.714 150.883 111.661 147.107 116.465C135.4 131.381 118.342 140.934 99.7766 143.22V129.897C105.562 129.013 111.226 127.257 116.468 124.712C124.332 120.874 131.353 115.213 136.758 108.327C138.7 105.85 139.773 102.761 139.773 99.617C139.773 96.4733 138.7 93.3841 136.758 90.9072C131.353 84.0211 124.332 78.3461 116.468 74.5219C111.226 71.9634 105.562 70.2215 99.7766 69.3369V56C118.342 58.2863 135.4 67.8263 147.107 82.7418C150.883 87.5458 152.934 93.493 152.934 99.6034Z" fill="white"/>
<path d="M60.1738 99.6035C60.1738 113.648 69.5449 125.529 82.352 129.298V142.894C62.1974 138.838 47 120.997 47 99.6035C47 78.2101 62.1838 60.3686 82.352 56.3131V69.9086C69.5449 73.6783 60.1738 85.5726 60.1738 99.6035Z" fill="white"/>
</svg>
