<svg width="200" height="200" viewBox="0 0 200 200" fill="none" xmlns="http://www.w3.org/2000/svg">
<path fill-rule="evenodd" clip-rule="evenodd" d="M99.2724 117.552C99.2724 107.941 91.4576 100.149 81.819 100.149C72.1785 100.149 64.3657 107.941 64.3657 117.552H99.2743H99.2724Z" fill="white"/>
<path fill-rule="evenodd" clip-rule="evenodd" d="M99.2724 82.7484C99.2724 92.3599 91.4576 100.151 81.819 100.151C72.1785 100.151 64.3657 92.3599 64.3657 82.7484H99.2743H99.2724Z" fill="white"/>
<path d="M166.179 100.166C166.179 96.9621 163.574 94.3651 160.361 94.3651C157.148 94.3651 154.543 96.9621 154.543 100.166C154.543 103.369 157.148 105.966 160.361 105.966C163.574 105.966 166.179 103.369 166.179 100.166Z" fill="white"/>
<path d="M154.543 82.7484H137.089V117.552H154.543V82.7484Z" fill="white"/>
<path fill-rule="evenodd" clip-rule="evenodd" d="M154.543 82.7484H172V97.2493L154.543 82.7484Z" fill="white"/>
<path fill-rule="evenodd" clip-rule="evenodd" d="M154.543 117.552H172V103.051L154.543 117.552Z" fill="white"/>
<path d="M57.0914 100.145C57.0914 96.9411 54.4866 94.3441 51.2733 94.3441C48.0601 94.3441 45.4552 96.9411 45.4552 100.145C45.4552 103.348 48.0601 105.945 51.2733 105.945C54.4866 105.945 57.0914 103.348 57.0914 100.145Z" fill="white"/>
<path fill-rule="evenodd" clip-rule="evenodd" d="M45.4552 82.7484H62.9105V97.2493L45.4552 82.7484Z" fill="white"/>
<path d="M45.4552 82.7484H28V117.552H45.4552V82.7484Z" fill="white"/>
<path fill-rule="evenodd" clip-rule="evenodd" d="M100.728 82.7485V117.552H118.181V100.149C118.181 90.5377 110.366 82.7466 100.728 82.7466V82.7485Z" fill="white"/>
<path fill-rule="evenodd" clip-rule="evenodd" d="M135.636 117.552V82.7484H118.181V100.151C118.181 109.763 125.996 117.554 135.636 117.554V117.552Z" fill="white"/>
</svg>
