<svg width="200" height="200" viewBox="0 0 200 200" fill="none" xmlns="http://www.w3.org/2000/svg">
<path d="M52.6071 88.1308C56.8083 88.1308 60.2141 84.7242 60.2141 80.522C60.2141 76.3198 56.8083 72.9132 52.6071 72.9132C48.4058 72.9132 45 76.3198 45 80.522C45 84.7242 48.4058 88.1308 52.6071 88.1308Z" fill="white"/>
<path d="M60.2377 135.956C64.4389 135.956 67.8447 132.55 67.8447 128.348C67.8447 124.145 64.4389 120.739 60.2377 120.739C56.0364 120.739 52.6306 124.145 52.6306 128.348C52.6306 132.55 56.0364 135.956 60.2377 135.956Z" fill="white"/>
<path d="M76.1759 151.899C80.3771 151.899 83.783 148.492 83.783 144.29C83.783 140.088 80.3771 136.681 76.1759 136.681C71.9747 136.681 68.5688 140.088 68.5688 144.29C68.5688 148.492 71.9747 151.899 76.1759 151.899Z" fill="white"/>
<path fill-rule="evenodd" clip-rule="evenodd" d="M76.1704 136.682C71.5513 136.682 67.8091 132.948 67.8091 128.348C64.1138 132.05 62.036 134.148 60.2345 135.957C64.8074 135.957 68.5489 139.691 68.5489 144.29C70.5813 142.257 73.8609 138.994 76.1704 136.682Z" fill="white"/>
<path d="M60.2866 64.2176C64.4879 64.2176 67.8937 60.811 67.8937 56.6088C67.8937 52.4066 64.4879 49 60.2866 49C56.0854 49 52.6796 52.4066 52.6796 56.6088C52.6796 60.811 56.0854 64.2176 60.2866 64.2176Z" fill="white"/>
<path d="M147.898 112.044C152.099 112.044 155.505 108.637 155.505 104.435C155.505 100.233 152.099 96.826 147.898 96.826C143.697 96.826 140.291 100.233 140.291 104.435C140.291 108.637 143.697 112.044 147.898 112.044Z" fill="white"/>
<path d="M60.2377 88.1308C64.4389 88.1308 67.8447 84.7242 67.8447 80.522C67.8447 76.3198 64.4389 72.9132 60.2377 72.9132C56.0364 72.9132 52.6306 76.3198 52.6306 80.522C52.6306 84.7242 56.0364 88.1308 60.2377 88.1308Z" fill="white"/>
<path d="M67.818 80.5223H52.6042V128.348H67.818V80.5223Z" fill="white"/>
<path d="M100.057 128.711V143.928H131.933V128.711H100.057Z" fill="white"/>
<path d="M140.264 120.379H155.478V104.074H140.264V120.379Z" fill="white"/>
<path d="M100.056 64.218V49.0006H131.96V64.218H100.056Z" fill="white"/>
<path d="M115.995 96.1019V80.8845H131.933V96.1019H115.995Z" fill="white"/>
<path d="M116.022 96.1016C120.223 96.1016 123.629 92.6951 123.629 88.4928C123.629 84.2906 120.223 80.884 116.022 80.884C111.82 80.884 108.415 84.2906 108.415 88.4928C108.415 92.6951 111.82 96.1016 116.022 96.1016Z" fill="white"/>
<path d="M52.6042 72.9137V88.1311H59.92V72.9137H52.6042Z" fill="white"/>
<path d="M84.1449 127.986C88.3461 127.986 91.752 124.579 91.752 120.377C91.752 116.175 88.3461 112.768 84.1449 112.768C79.9437 112.768 76.5378 116.175 76.5378 120.377C76.5378 124.579 79.9437 127.986 84.1449 127.986Z" fill="white"/>
<path d="M100.083 143.928C104.284 143.928 107.69 140.521 107.69 136.319C107.69 132.117 104.284 128.71 100.083 128.71C95.882 128.71 92.4762 132.117 92.4762 136.319C92.4762 140.521 95.882 143.928 100.083 143.928Z" fill="white"/>
<path fill-rule="evenodd" clip-rule="evenodd" d="M100.078 128.711C95.4588 128.711 91.7166 124.977 91.7166 120.377C88.0213 124.079 85.9434 126.178 84.142 127.986C88.7149 127.986 92.4564 131.72 92.4564 136.319C94.4888 134.287 97.7684 131.023 100.078 128.711Z" fill="white"/>
<path d="M147.845 127.986C143.644 127.986 140.238 124.579 140.238 120.377C140.238 116.175 143.644 112.768 147.845 112.768C152.046 112.768 155.452 116.175 155.452 120.377C155.452 124.579 152.046 127.986 147.845 127.986Z" fill="white"/>
<path d="M131.907 143.928C127.705 143.928 124.3 140.521 124.3 136.319C124.3 132.117 127.705 128.71 131.907 128.71C136.108 128.71 139.514 132.117 139.514 136.319C139.514 140.521 136.108 143.928 131.907 143.928Z" fill="white"/>
<path fill-rule="evenodd" clip-rule="evenodd" d="M131.912 128.711C136.531 128.711 140.273 124.977 140.273 120.377C143.968 124.079 146.046 126.178 147.848 127.986C143.275 127.986 139.533 131.72 139.533 136.319C137.501 134.287 134.221 131.023 131.912 128.711Z" fill="white"/>
<path d="M147.845 80.1596C143.644 80.1596 140.238 76.753 140.238 72.5508C140.238 68.3486 143.644 64.942 147.845 64.942C152.046 64.942 155.452 68.3486 155.452 72.5508C155.452 76.753 152.046 80.1596 147.845 80.1596Z" fill="white"/>
<path d="M131.907 96.1015C127.705 96.1015 124.3 92.6949 124.3 88.4927C124.3 84.2905 127.705 80.8839 131.907 80.8839C136.108 80.8839 139.514 84.2905 139.514 88.4927C139.514 92.6949 136.108 96.1015 131.907 96.1015Z" fill="white"/>
<path fill-rule="evenodd" clip-rule="evenodd" d="M131.912 80.8848C136.531 80.8848 140.273 77.1508 140.273 72.5514C143.968 76.2531 146.046 78.3516 147.848 80.1604C143.275 80.1604 139.533 83.8944 139.533 88.4934C137.501 86.4605 134.221 83.1968 131.912 80.8848Z" fill="white"/>
<path d="M100.03 64.2176C95.8289 64.2176 92.4231 60.811 92.4231 56.6088C92.4231 52.4066 95.8289 49 100.03 49C104.231 49 107.637 52.4066 107.637 56.6088C107.637 60.811 104.231 64.2176 100.03 64.2176Z" fill="white"/>
<path d="M84.0919 80.1596C79.8907 80.1596 76.4849 76.753 76.4849 72.5508C76.4849 68.3486 79.8907 64.942 84.0919 64.942C88.2932 64.942 91.699 68.3486 91.699 72.5508C91.699 76.753 88.2932 80.1596 84.0919 80.1596Z" fill="white"/>
<path fill-rule="evenodd" clip-rule="evenodd" d="M84.0973 64.9426C88.7164 64.9426 92.4586 61.2085 92.4586 56.6091C96.1539 60.3108 98.2317 62.4093 100.033 64.2181C95.4603 64.2181 91.7188 67.9522 91.7188 72.5511C89.6864 70.5182 86.4068 67.2545 84.0973 64.9426Z" fill="white"/>
<path d="M131.907 49.001C127.705 49.001 124.3 52.4076 124.3 56.6098C124.3 60.812 127.705 64.2186 131.907 64.2186C136.108 64.2186 139.514 60.812 139.514 56.6098C139.514 52.4076 136.108 49.001 131.907 49.001Z" fill="white"/>
<path fill-rule="evenodd" clip-rule="evenodd" d="M131.912 64.2179C136.531 64.2179 140.273 67.952 140.273 72.5514C143.969 68.8497 146.046 66.7512 147.848 64.9424C143.275 64.9424 139.533 61.2083 139.533 56.6094C137.501 58.6423 134.222 61.906 131.912 64.2179Z" fill="white"/>
</svg>
